<svg xmlns="http://www.w3.org/2000/svg" viewBox="0 0 48 48" fill="none">
  <circle cx="24" cy="24" r="22" fill="#4285F4"/>
  <path d="M24 2c12.15 0 22 9.85 22 22H24V2z" fill="#EA4335"/>
  <path d="M24 24l11-19c6.08 3.51 10.17 10.1 10.17 17.67 0 1.12-.09 2.22-.27 3.29L24 24z" fill="#FBBC04"/>
  <path d="M24 24L35 5C28.92 1.49 21.67.5 15.03 2.83L24 24z" fill="#EA4335"/>
  <path d="M24 24L2.83 27.96C4.5 38.43 13.34 46 24 46c3.38 0 6.58-.76 9.44-2.12L24 24z" fill="#34A853"/>
  <path d="M24 24l-21.17 3.96c-.54-1.27-.83-2.61-.83-4.01 0-8.02 4.3-15.04 10.72-18.89L24 24z" fill="#FBBC04"/>
  <circle cx="24" cy="24" r="8" fill="white"/>
  <circle cx="24" cy="24" r="5" fill="#4285F4"/>
</svg>
