<svg xmlns="http://www.w3.org/2000/svg" viewBox="0 0 48 48" fill="none">
  <path d="M7.5 4.5C6.67 4.5 6 5.17 6 6v36c0 .83.67 1.5 1.5 1.5.36 0 .7-.13.97-.36L30 24 8.47 4.86c-.27-.23-.61-.36-.97-.36z" fill="#4285F4"/>
  <path d="M8.47 4.86L30 24l6.5-6.5L11.5 3.5c-.97-.54-2.03-.18-3.03 1.36z" fill="#EA4335"/>
  <path d="M36.5 30.5L30 24l-21.53 19.14c1 1.54 2.06 1.9 3.03 1.36l25-14z" fill="#34A853"/>
  <path d="M42 24c0-1.1-.6-2.1-1.5-2.5L36.5 17.5 30 24l6.5 6.5 4-4c.9-.4 1.5-1.4 1.5-2.5z" fill="#FBBC04"/>
</svg>
