<svg xmlns="http://www.w3.org/2000/svg" viewBox="0 0 48 48" fill="none">
  <rect width="48" height="48" rx="10" fill="#FF5722"/>
  <path d="M24 8C15.16 8 8 15.16 8 24s7.16 16 16 16 16-7.16 16-16S32.84 8 24 8zm0 28c-6.63 0-12-5.37-12-12s5.37-12 12-12 12 5.37 12 12-5.37 12-12 12z" fill="white"/>
  <path d="M24 14c-5.52 0-10 4.48-10 10s4.48 10 10 10 10-4.48 10-10-4.48-10-10-10zm0 16c-3.31 0-6-2.69-6-6s2.69-6 6-6 6 2.69 6 6-2.69 6-6 6z" fill="white"/>
  <circle cx="24" cy="24" r="4" fill="white"/>
</svg>
